<?xml version="1.0" encoding="UTF-8" standalone="no"?>
<!-- Created with Inkscape (http://www.inkscape.org/) -->

<svg
   xmlns:dc="http://purl.org/dc/elements/1.1/"
   xmlns:cc="http://creativecommons.org/ns#"
   xmlns:rdf="http://www.w3.org/1999/02/22-rdf-syntax-ns#"
   xmlns:svg="http://www.w3.org/2000/svg"
   xmlns="http://www.w3.org/2000/svg"
   xmlns:sodipodi="http://sodipodi.sourceforge.net/DTD/sodipodi-0.dtd"
   xmlns:inkscape="http://www.inkscape.org/namespaces/inkscape"
   inkscape:export-ydpi="270"
   inkscape:export-xdpi="270"
   inkscape:export-filename="/Users/nicholas/Xcode Projects/X Schedule/Vector Graphics/announcementsTab@3x.png"
   sodipodi:docname="announcementsTab.svg"
   inkscape:version="0.91 r13725"
   version="1.1"
   id="svg2"
   viewBox="0 0 24.999999 24.999999"
   height="25"
   width="25">
  <sodipodi:namedview
     units="px"
     showgrid="false"
     inkscape:current-layer="layer1"
     inkscape:document-units="px"
     inkscape:cy="12.127908"
     inkscape:cx="15.034757"
     inkscape:zoom="2.9411461"
     inkscape:pageshadow="2"
     inkscape:pageopacity="0.0"
     borderopacity="1.0"
     bordercolor="#666666"
     pagecolor="#ffffff"
     id="base" />
  <defs
     id="defs4">
    <inkscape:perspective
       id="perspective4154"
       inkscape:persp3d-origin="12.499999 : 8.333333 : 1"
       inkscape:vp_z="24.999999 : 12.499999 : 1"
       inkscape:vp_y="0 : 1000 : 0"
       inkscape:vp_x="8.524692 : 7.3654355 : 1"
       sodipodi:type="inkscape:persp3d" />
    <marker
       inkscape:stockid="Arrow1Lstart"
       orient="auto"
       refY="0.0"
       refX="0.0"
       id="Arrow1Lstart"
       style="overflow:visible"
       inkscape:isstock="true">
      <path
         id="path4177"
         d="M 0.0,0.0 L 5.0,-5.0 L -12.5,0.0 L 5.0,5.0 L 0.0,0.0 z "
         style="fill-rule:evenodd;stroke:#000000;stroke-width:1pt;stroke-opacity:1;fill:#ff89ff;fill-opacity:1"
         transform="scale(0.8) translate(12.5,0)" />
    </marker>
  </defs>
  <metadata
     id="metadata7">
    <rdf:RDF>
      <cc:Work
         rdf:about="">
        <dc:format>image/svg+xml</dc:format>
        <dc:type
           rdf:resource="http://purl.org/dc/dcmitype/StillImage" />
        <dc:title></dc:title>
        <cc:license
           rdf:resource="http://creativecommons.org/licenses/by/3.0/" />
      </cc:Work>
      <cc:License
         rdf:about="http://creativecommons.org/licenses/by/3.0/">
        <cc:permits
           rdf:resource="http://creativecommons.org/ns#Reproduction" />
        <cc:permits
           rdf:resource="http://creativecommons.org/ns#Distribution" />
        <cc:requires
           rdf:resource="http://creativecommons.org/ns#Notice" />
        <cc:requires
           rdf:resource="http://creativecommons.org/ns#Attribution" />
        <cc:permits
           rdf:resource="http://creativecommons.org/ns#DerivativeWorks" />
      </cc:License>
    </rdf:RDF>
  </metadata>
  <g
     inkscape:groupmode="layer"
     id="layer3"
     inkscape:label="Final"
     style="display:none" />
  <g
     inkscape:label="Base Shapes"
     inkscape:groupmode="layer"
     id="layer1"
     transform="translate(0,-1027.3622)"
     style="display:inline">
    <g
       transform="translate(12.662372,12.73354)"
       inkscape:label="Gear6"
       id="g4176">
      <path
         d="m 7.37557,-1.99047 3.51971,-0.94987 0.17341,-0.02551 4.14742,1.58236 0,2.76698 L 11.06869,2.96585 10.89528,2.94034 7.37557,1.99047 5.41158,5.3922 7.99405,7.96542 8.10285,8.10285 8.80619,12.48579 6.40991,13.86928 2.96585,11.06869 2.90123,10.90576 1.96399,7.38267 l -3.92798,0 -0.93724,3.52309 -0.06462,0.16293 -3.44406,2.80059 -2.39628,-1.38349 0.70334,-4.38294 0.1088,-0.13743 2.58247,-2.57322 -1.96399,-3.40173 -3.51971,0.94987 -0.17341,0.02551 -4.14742,-1.58236 0,-2.76698 4.14742,-1.58236 0.17341,0.02551 3.51971,0.94987 1.96399,-3.40173 -2.58247,-2.57322 -0.1088,-0.13743 -0.70334,-4.38294 2.39628,-1.38349 3.44406,2.80059 0.06462,0.16293 0.93724,3.52309 3.92798,0 0.93724,-3.52309 0.06462,-0.16293 3.44406,-2.80059 2.39628,1.38349 -0.70334,4.38294 -0.1088,0.13743 -2.58247,2.57322 z"
         style="fill:none;stroke:#000000;stroke-width:1"
         id="path4178"
         inkscape:connector-curvature="0" />
      <circle
         style="fill:none;stroke:#000000;stroke-width:1"
         id="path4180"
         cx="0"
         cy="0"
         r="10" />
    </g>
    <g
       id="g4240"
       inkscape:label="Gear7"
       transform="translate(12.662372,12.73354)">
      <path
         id="path4242"
         style="fill:none;stroke:#000000;stroke-width:1"
         d="m 9.30605,-2.14162 3.52449,-0.81109 0.20329,-0.02218 4.09265,1.5133 0,2.92318 -4.09265,1.5133 L 12.83054,2.95271 9.30605,2.14162 7.47661,5.94049 10.30823,8.19033 10.45232,8.33544 11.8209,12.47873 9.53547,14.30131 5.8006,12.04507 5.69118,11.8723 4.12784,8.61104 0.01713,9.54928 0.02362,13.16589 0,13.36902 l -2.38605,3.6533 -2.8499,-0.65047 -0.56465,-4.32678 0.06685,-0.19326 1.57504,-3.25564 -3.29654,-2.6289 -2.82353,2.25999 -0.17354,0.10818 -4.34394,0.41231 -1.26833,-2.6337 3.03076,-3.13916 0.19278,-0.06823 3.52738,-0.79845 0,-4.21642 -3.52738,-0.79845 -0.19278,-0.06823 -3.03076,-3.13916 1.26833,-2.6337 4.34394,0.41231 0.17354,0.10818 2.82353,2.25999 3.29654,-2.6289 -1.57504,-3.25564 -0.06685,-0.19326 0.56465,-4.32678 2.8499,-0.65047 2.38605,3.6533 0.02362,0.20313 -0.00649,3.61661 4.11071,0.93824 1.56334,-3.26126 0.10942,-0.17277 3.73487,-2.25624 2.28543,1.82258 -1.36858,4.14329 -0.14409,0.14511 -2.83162,2.24984 z"
         inkscape:connector-curvature="0" />
      <circle
         id="path4244"
         style="fill:none;stroke:#000000;stroke-width:1"
         cx="0"
         cy="0"
         r="10" />
    </g>
    <g
       transform="translate(13.127929,12.73354)"
       inkscape:label="Gear7"
       id="g4277">
      <path
         d="m 9.30605,-2.14162 3.52449,-0.81109 0.20329,-0.02218 4.09265,1.5133 0,2.92318 -4.09265,1.5133 L 12.83054,2.95271 9.30605,2.14162 7.47661,5.94049 10.30823,8.19033 10.45232,8.33544 11.8209,12.47873 9.53547,14.30131 5.8006,12.04507 5.69118,11.8723 4.12784,8.61104 0.01713,9.54928 0.02362,13.16589 0,13.36902 l -2.38605,3.6533 -2.8499,-0.65047 -0.56465,-4.32678 0.06685,-0.19326 1.57504,-3.25564 -3.29654,-2.6289 -2.82353,2.25999 -0.17354,0.10818 -4.34394,0.41231 -1.26833,-2.6337 3.03076,-3.13916 0.19278,-0.06823 3.52738,-0.79845 0,-4.21642 -3.52738,-0.79845 -0.19278,-0.06823 -3.03076,-3.13916 1.26833,-2.6337 4.34394,0.41231 0.17354,0.10818 2.82353,2.25999 3.29654,-2.6289 -1.57504,-3.25564 -0.06685,-0.19326 0.56465,-4.32678 2.8499,-0.65047 2.38605,3.6533 0.02362,0.20313 -0.00649,3.61661 4.11071,0.93824 1.56334,-3.26126 0.10942,-0.17277 3.73487,-2.25624 2.28543,1.82258 -1.36858,4.14329 -0.14409,0.14511 -2.83162,2.24984 z"
         style="fill:none;stroke:#000000;stroke-width:1"
         id="path4279"
         inkscape:connector-curvature="0" />
      <circle
         style="fill:none;stroke:#000000;stroke-width:1"
         id="path4281"
         cx="0"
         cy="0"
         r="10" />
    </g>
    <g
       id="g4202"
       inkscape:label="RackGear100.0"
       transform="translate(12.078413,13.812326)">
      <path
         id="path4204"
         style="fill:none;stroke:#000000;stroke-width:1"
         d="M 0,0 3.64,10 10,10 13.64,0 20,0 23.64,10 30,10 33.64,0 40,0 43.64,10 50,10 53.64,0 60,0 63.64,10 70,10 73.64,0 80,0 83.64,10 90,10 93.64,0"
         inkscape:connector-curvature="0" />
    </g>
    <g
       transform="translate(12.078413,13.812326)"
       inkscape:label="Gear7"
       id="g4250">
      <path
         d="m 9.30605,-2.14162 3.52449,-0.81109 0.20329,-0.02218 4.09265,1.5133 0,2.92318 -4.09265,1.5133 L 12.83054,2.95271 9.30605,2.14162 7.47661,5.94049 10.30823,8.19033 10.45232,8.33544 11.8209,12.47873 9.53547,14.30131 5.8006,12.04507 5.69118,11.8723 4.12784,8.61104 0.01713,9.54928 0.02362,13.16589 0,13.36902 l -2.38605,3.6533 -2.8499,-0.65047 -0.56465,-4.32678 0.06685,-0.19326 1.57504,-3.25564 -3.29654,-2.6289 -2.82353,2.25999 -0.17354,0.10818 -4.34394,0.41231 -1.26833,-2.6337 3.03076,-3.13916 0.19278,-0.06823 3.52738,-0.79845 0,-4.21642 -3.52738,-0.79845 -0.19278,-0.06823 -3.03076,-3.13916 1.26833,-2.6337 4.34394,0.41231 0.17354,0.10818 2.82353,2.25999 3.29654,-2.6289 -1.57504,-3.25564 -0.06685,-0.19326 0.56465,-4.32678 2.8499,-0.65047 2.38605,3.6533 0.02362,0.20313 -0.00649,3.61661 4.11071,0.93824 1.56334,-3.26126 0.10942,-0.17277 3.73487,-2.25624 2.28543,1.82258 -1.36858,4.14329 -0.14409,0.14511 -2.83162,2.24984 z"
         style="fill:none;stroke:#000000;stroke-width:1"
         id="path4252"
         inkscape:connector-curvature="0" />
      <circle
         style="fill:none;stroke:#000000;stroke-width:1"
         id="path4254"
         cx="0"
         cy="0"
         r="10" />
    </g>
    <g
       id="g4304"
       inkscape:label="Gear7"
       transform="translate(12.078413,13.812326)">
      <path
         id="path4306"
         style="fill:none;stroke:#000000;stroke-width:1"
         d="m 9.30605,-2.14162 3.52449,-0.81109 0.20329,-0.02218 4.09265,1.5133 0,2.92318 -4.09265,1.5133 L 12.83054,2.95271 9.30605,2.14162 7.47661,5.94049 10.30823,8.19033 10.45232,8.33544 11.8209,12.47873 9.53547,14.30131 5.8006,12.04507 5.69118,11.8723 4.12784,8.61104 0.01713,9.54928 0.02362,13.16589 0,13.36902 l -2.38605,3.6533 -2.8499,-0.65047 -0.56465,-4.32678 0.06685,-0.19326 1.57504,-3.25564 -3.29654,-2.6289 -2.82353,2.25999 -0.17354,0.10818 -4.34394,0.41231 -1.26833,-2.6337 3.03076,-3.13916 0.19278,-0.06823 3.52738,-0.79845 0,-4.21642 -3.52738,-0.79845 -0.19278,-0.06823 -3.03076,-3.13916 1.26833,-2.6337 4.34394,0.41231 0.17354,0.10818 2.82353,2.25999 3.29654,-2.6289 -1.57504,-3.25564 -0.06685,-0.19326 0.56465,-4.32678 2.8499,-0.65047 2.38605,3.6533 0.02362,0.20313 -0.00649,3.61661 4.11071,0.93824 1.56334,-3.26126 0.10942,-0.17277 3.73487,-2.25624 2.28543,1.82258 -1.36858,4.14329 -0.14409,0.14511 -2.83162,2.24984 z"
         inkscape:connector-curvature="0" />
      <circle
         id="path4308"
         style="fill:none;stroke:#000000;stroke-width:1"
         cx="0"
         cy="0"
         r="10" />
    </g>
    <rect
       style="color:#000000;display:inline;overflow:visible;visibility:visible;opacity:1;fill:#000000;fill-opacity:1;fill-rule:nonzero;stroke:none;stroke-width:6;stroke-linecap:butt;stroke-linejoin:round;stroke-miterlimit:4;stroke-dasharray:none;stroke-opacity:1;marker:none;enable-background:accumulate"
       id="rect4188"
       width="2.4792576"
       height="9.5970612"
       x="-267.83087"
       y="1003.402"
       ry="1.2396288"
       rx="0"
       transform="matrix(0.96592583,-0.25881905,0.25881905,0.96592583,0,0)" />
    <rect
       style="color:#000000;display:inline;overflow:visible;visibility:visible;opacity:1;fill:#000000;fill-opacity:1;fill-rule:nonzero;stroke:none;stroke-width:6;stroke-linecap:butt;stroke-linejoin:round;stroke-miterlimit:4;stroke-dasharray:none;stroke-opacity:1;marker:none;enable-background:accumulate"
       id="rect4188-7"
       width="2.4792576"
       height="15.395382"
       x="-249.83627"
       y="1000.5027"
       ry="1.2396288"
       transform="matrix(0.96592583,-0.25881905,0.25881905,0.96592583,0,0)" />
    <path
       style="color:#000000;display:inline;overflow:visible;visibility:visible;opacity:1;fill:#000000;fill-opacity:1;fill-rule:nonzero;stroke:none;stroke-width:6;stroke-linecap:butt;stroke-linejoin:round;stroke-miterlimit:4;stroke-dasharray:none;stroke-opacity:1;marker:none;enable-background:accumulate"
       d="m 4.149023,1038.793 1.9324724,7.2121 14.7573306,-1.009 -3.425754,-12.7851 z"
       id="path4207"
       inkscape:connector-curvature="0"
       sodipodi:nodetypes="ccccc" />
    <circle
       style="color:#000000;display:inline;overflow:visible;visibility:visible;opacity:1;fill:none;fill-opacity:1;fill-rule:nonzero;stroke:#000000;stroke-width:1.60000002;stroke-linecap:square;stroke-linejoin:miter;stroke-miterlimit:4;stroke-dasharray:none;stroke-opacity:1;marker:none;enable-background:accumulate"
       id="path4231"
       cx="-257.47128"
       cy="1011.0101"
       r="5.0150518"
       transform="matrix(0.96592583,-0.25881905,0.25881905,0.96592583,0,0)" />
  </g>
</svg>
