<?xml version="1.0" encoding="UTF-8" standalone="no"?>
<!-- Created with Inkscape (http://www.inkscape.org/) -->

<svg
   xmlns:dc="http://purl.org/dc/elements/1.1/"
   xmlns:cc="http://creativecommons.org/ns#"
   xmlns:rdf="http://www.w3.org/1999/02/22-rdf-syntax-ns#"
   xmlns:svg="http://www.w3.org/2000/svg"
   xmlns="http://www.w3.org/2000/svg"
   xmlns:sodipodi="http://sodipodi.sourceforge.net/DTD/sodipodi-0.dtd"
   xmlns:inkscape="http://www.inkscape.org/namespaces/inkscape"
   inkscape:export-ydpi="90"
   inkscape:export-xdpi="90"
   inkscape:export-filename="/Users/nicholas/Xcode Projects/X Schedule/Vector Graphics/settingsTab@1x.png"
   sodipodi:docname="settingsTab.svg"
   inkscape:version="0.91 r13725"
   version="1.1"
   id="svg2"
   viewBox="0 0 24.999999 24.999999"
   height="25"
   width="25">
  <sodipodi:namedview
     units="px"
     showgrid="false"
     inkscape:current-layer="layer1"
     inkscape:document-units="px"
     inkscape:cy="13.165548"
     inkscape:cx="12.24396"
     inkscape:zoom="25.007488"
     inkscape:pageshadow="2"
     inkscape:pageopacity="0.0"
     borderopacity="1.0"
     bordercolor="#666666"
     pagecolor="#ffffff"
     id="base" />
  <defs
     id="defs4">
    <inkscape:perspective
       id="perspective4154"
       inkscape:persp3d-origin="12.499999 : 8.333333 : 1"
       inkscape:vp_z="24.999999 : 12.499999 : 1"
       inkscape:vp_y="0 : 1000 : 0"
       inkscape:vp_x="8.524692 : 7.3654355 : 1"
       sodipodi:type="inkscape:persp3d" />
    <marker
       inkscape:stockid="Arrow1Lstart"
       orient="auto"
       refY="0.0"
       refX="0.0"
       id="Arrow1Lstart"
       style="overflow:visible"
       inkscape:isstock="true">
      <path
         id="path4177"
         d="M 0.0,0.0 L 5.0,-5.0 L -12.5,0.0 L 5.0,5.0 L 0.0,0.0 z "
         style="fill-rule:evenodd;stroke:#000000;stroke-width:1pt;stroke-opacity:1;fill:#ff89ff;fill-opacity:1"
         transform="scale(0.8) translate(12.5,0)" />
    </marker>
  </defs>
  <metadata
     id="metadata7">
    <rdf:RDF>
      <cc:Work
         rdf:about="">
        <dc:format>image/svg+xml</dc:format>
        <dc:type
           rdf:resource="http://purl.org/dc/dcmitype/StillImage" />
        <dc:title />
        <cc:license
           rdf:resource="http://creativecommons.org/licenses/by/3.0/" />
      </cc:Work>
      <cc:License
         rdf:about="http://creativecommons.org/licenses/by/3.0/">
        <cc:permits
           rdf:resource="http://creativecommons.org/ns#Reproduction" />
        <cc:permits
           rdf:resource="http://creativecommons.org/ns#Distribution" />
        <cc:requires
           rdf:resource="http://creativecommons.org/ns#Notice" />
        <cc:requires
           rdf:resource="http://creativecommons.org/ns#Attribution" />
        <cc:permits
           rdf:resource="http://creativecommons.org/ns#DerivativeWorks" />
      </cc:License>
    </rdf:RDF>
  </metadata>
  <g
     inkscape:groupmode="layer"
     id="layer3"
     inkscape:label="Final"
     style="display:inline" />
  <g
     inkscape:label="Base Shapes"
     inkscape:groupmode="layer"
     id="layer1"
     transform="translate(0,-1027.3622)"
     style="display:inline">
    <g
       transform="translate(12.662372,12.73354)"
       inkscape:label="Gear6"
       id="g4176">
      <path
         d="M7.37557,-1.99047 L10.89528,-2.94034 L11.06869,-2.96585 L15.21611,-1.38349 L15.21611,1.38349 L11.06869,2.96585 L10.89528,2.94034 L7.37557,1.99047 L5.41158,5.39220 L7.99405,7.96542 L8.10285,8.10285 L8.80619,12.48579 L6.40991,13.86928 L2.96585,11.06869 L2.90123,10.90576 L1.96399,7.38267 L-1.96399,7.38267 L-2.90123,10.90576 L-2.96585,11.06869 L-6.40991,13.86928 L-8.80619,12.48579 L-8.10285,8.10285 L-7.99405,7.96542 L-5.41158,5.39220 L-7.37557,1.99047 L-10.89528,2.94034 L-11.06869,2.96585 L-15.21611,1.38349 L-15.21611,-1.38349 L-11.06869,-2.96585 L-10.89528,-2.94034 L-7.37557,-1.99047 L-5.41158,-5.39220 L-7.99405,-7.96542 L-8.10285,-8.10285 L-8.80619,-12.48579 L-6.40991,-13.86928 L-2.96585,-11.06869 L-2.90123,-10.90576 L-1.96399,-7.38267 L1.96399,-7.38267 L2.90123,-10.90576 L2.96585,-11.06869 L6.40991,-13.86928 L8.80619,-12.48579 L8.10285,-8.10285 L7.99405,-7.96542 L5.41158,-5.39220z"
         style="stroke:#000000;stroke-width:1.0;fill:none"
         id="path4178" />
      <path
         style="stroke:#000000;stroke-width:1.0;fill:none"
         sodipodi:cx="0.0"
         sodipodi:cy="0.0"
         sodipodi:rx="10.0"
         sodipodi:ry="10.0"
         sodipodi:type="arc"
         id="path4180"
         d="M 10,0 A 10,10 0 0 1 0,10 10,10 0 0 1 -10,0 10,10 0 0 1 0,-10 10,10 0 0 1 10,0 Z" />
    </g>
    <g
       id="g4240"
       inkscape:label="Gear7"
       transform="translate(12.662372,12.73354)">
      <path
         id="path4242"
         style="stroke:#000000;stroke-width:1.0;fill:none"
         d="M9.30605,-2.14162 L12.83054,-2.95271 L13.03383,-2.97489 L17.12648,-1.46159 L17.12648,1.46159 L13.03383,2.97489 L12.83054,2.95271 L9.30605,2.14162 L7.47661,5.94049 L10.30823,8.19033 L10.45232,8.33544 L11.82090,12.47873 L9.53547,14.30131 L5.80060,12.04507 L5.69118,11.87230 L4.12784,8.61104 L0.01713,9.54928 L0.02362,13.16589 L0.00000,13.36902 L-2.38605,17.02232 L-5.23595,16.37185 L-5.80060,12.04507 L-5.73375,11.85181 L-4.15871,8.59617 L-7.45525,5.96727 L-10.27878,8.22726 L-10.45232,8.33544 L-14.79626,8.74775 L-16.06459,6.11405 L-13.03383,2.97489 L-12.84105,2.90666 L-9.31367,2.10821 L-9.31367,-2.10821 L-12.84105,-2.90666 L-13.03383,-2.97489 L-16.06459,-6.11405 L-14.79626,-8.74775 L-10.45232,-8.33544 L-10.27878,-8.22726 L-7.45525,-5.96727 L-4.15871,-8.59617 L-5.73375,-11.85181 L-5.80060,-12.04507 L-5.23595,-16.37185 L-2.38605,-17.02232 L-0.00000,-13.36902 L0.02362,-13.16589 L0.01713,-9.54928 L4.12784,-8.61104 L5.69118,-11.87230 L5.80060,-12.04507 L9.53547,-14.30131 L11.82090,-12.47873 L10.45232,-8.33544 L10.30823,-8.19033 L7.47661,-5.94049z" />
      <path
         d="M 10,0 A 10,10 0 0 1 0,10 10,10 0 0 1 -10,0 10,10 0 0 1 0,-10 10,10 0 0 1 10,0 Z"
         id="path4244"
         sodipodi:type="arc"
         sodipodi:ry="10.0"
         sodipodi:rx="10.0"
         sodipodi:cy="0.0"
         sodipodi:cx="0.0"
         style="stroke:#000000;stroke-width:1.0;fill:none" />
    </g>
    <g
       transform="translate(13.127929,12.73354)"
       inkscape:label="Gear7"
       id="g4277">
      <path
         d="M9.30605,-2.14162 L12.83054,-2.95271 L13.03383,-2.97489 L17.12648,-1.46159 L17.12648,1.46159 L13.03383,2.97489 L12.83054,2.95271 L9.30605,2.14162 L7.47661,5.94049 L10.30823,8.19033 L10.45232,8.33544 L11.82090,12.47873 L9.53547,14.30131 L5.80060,12.04507 L5.69118,11.87230 L4.12784,8.61104 L0.01713,9.54928 L0.02362,13.16589 L0.00000,13.36902 L-2.38605,17.02232 L-5.23595,16.37185 L-5.80060,12.04507 L-5.73375,11.85181 L-4.15871,8.59617 L-7.45525,5.96727 L-10.27878,8.22726 L-10.45232,8.33544 L-14.79626,8.74775 L-16.06459,6.11405 L-13.03383,2.97489 L-12.84105,2.90666 L-9.31367,2.10821 L-9.31367,-2.10821 L-12.84105,-2.90666 L-13.03383,-2.97489 L-16.06459,-6.11405 L-14.79626,-8.74775 L-10.45232,-8.33544 L-10.27878,-8.22726 L-7.45525,-5.96727 L-4.15871,-8.59617 L-5.73375,-11.85181 L-5.80060,-12.04507 L-5.23595,-16.37185 L-2.38605,-17.02232 L-0.00000,-13.36902 L0.02362,-13.16589 L0.01713,-9.54928 L4.12784,-8.61104 L5.69118,-11.87230 L5.80060,-12.04507 L9.53547,-14.30131 L11.82090,-12.47873 L10.45232,-8.33544 L10.30823,-8.19033 L7.47661,-5.94049z"
         style="stroke:#000000;stroke-width:1.0;fill:none"
         id="path4279" />
      <path
         style="stroke:#000000;stroke-width:1.0;fill:none"
         sodipodi:cx="0.0"
         sodipodi:cy="0.0"
         sodipodi:rx="10.0"
         sodipodi:ry="10.0"
         sodipodi:type="arc"
         id="path4281"
         d="M 10,0 A 10,10 0 0 1 0,10 10,10 0 0 1 -10,0 10,10 0 0 1 0,-10 10,10 0 0 1 10,0 Z" />
    </g>
    <g
       id="g4202"
       inkscape:label="RackGear100.0"
       transform="translate(12.078413,13.812326)">
      <path
         id="path4204"
         style="stroke:#000000;stroke-width:1.0;fill:none"
         d="M0.000,0.000L3.640,10.000L10.000,10.000L13.640,0.000L20.000,0.000L23.640,10.000L30.000,10.000L33.640,0.000L40.000,0.000L43.640,10.000L50.000,10.000L53.640,0.000L60.000,0.000L63.640,10.000L70.000,10.000L73.640,0.000L80.000,0.000L83.640,10.000L90.000,10.000L93.640,0.000" />
    </g>
    <g
       transform="translate(12.078413,13.812326)"
       inkscape:label="Gear7"
       id="g4250">
      <path
         d="M9.30605,-2.14162 L12.83054,-2.95271 L13.03383,-2.97489 L17.12648,-1.46159 L17.12648,1.46159 L13.03383,2.97489 L12.83054,2.95271 L9.30605,2.14162 L7.47661,5.94049 L10.30823,8.19033 L10.45232,8.33544 L11.82090,12.47873 L9.53547,14.30131 L5.80060,12.04507 L5.69118,11.87230 L4.12784,8.61104 L0.01713,9.54928 L0.02362,13.16589 L0.00000,13.36902 L-2.38605,17.02232 L-5.23595,16.37185 L-5.80060,12.04507 L-5.73375,11.85181 L-4.15871,8.59617 L-7.45525,5.96727 L-10.27878,8.22726 L-10.45232,8.33544 L-14.79626,8.74775 L-16.06459,6.11405 L-13.03383,2.97489 L-12.84105,2.90666 L-9.31367,2.10821 L-9.31367,-2.10821 L-12.84105,-2.90666 L-13.03383,-2.97489 L-16.06459,-6.11405 L-14.79626,-8.74775 L-10.45232,-8.33544 L-10.27878,-8.22726 L-7.45525,-5.96727 L-4.15871,-8.59617 L-5.73375,-11.85181 L-5.80060,-12.04507 L-5.23595,-16.37185 L-2.38605,-17.02232 L-0.00000,-13.36902 L0.02362,-13.16589 L0.01713,-9.54928 L4.12784,-8.61104 L5.69118,-11.87230 L5.80060,-12.04507 L9.53547,-14.30131 L11.82090,-12.47873 L10.45232,-8.33544 L10.30823,-8.19033 L7.47661,-5.94049z"
         style="stroke:#000000;stroke-width:1.0;fill:none"
         id="path4252" />
      <path
         style="stroke:#000000;stroke-width:1.0;fill:none"
         sodipodi:cx="0.0"
         sodipodi:cy="0.0"
         sodipodi:rx="10.0"
         sodipodi:ry="10.0"
         sodipodi:type="arc"
         id="path4254"
         d="M 10,0 A 10,10 0 0 1 0,10 10,10 0 0 1 -10,0 10,10 0 0 1 0,-10 10,10 0 0 1 10,0 Z" />
    </g>
    <g
       id="g4304"
       inkscape:label="Gear7"
       transform="translate(12.078413,13.812326)">
      <path
         id="path4306"
         style="stroke:#000000;stroke-width:1.0;fill:none"
         d="M9.30605,-2.14162 L12.83054,-2.95271 L13.03383,-2.97489 L17.12648,-1.46159 L17.12648,1.46159 L13.03383,2.97489 L12.83054,2.95271 L9.30605,2.14162 L7.47661,5.94049 L10.30823,8.19033 L10.45232,8.33544 L11.82090,12.47873 L9.53547,14.30131 L5.80060,12.04507 L5.69118,11.87230 L4.12784,8.61104 L0.01713,9.54928 L0.02362,13.16589 L0.00000,13.36902 L-2.38605,17.02232 L-5.23595,16.37185 L-5.80060,12.04507 L-5.73375,11.85181 L-4.15871,8.59617 L-7.45525,5.96727 L-10.27878,8.22726 L-10.45232,8.33544 L-14.79626,8.74775 L-16.06459,6.11405 L-13.03383,2.97489 L-12.84105,2.90666 L-9.31367,2.10821 L-9.31367,-2.10821 L-12.84105,-2.90666 L-13.03383,-2.97489 L-16.06459,-6.11405 L-14.79626,-8.74775 L-10.45232,-8.33544 L-10.27878,-8.22726 L-7.45525,-5.96727 L-4.15871,-8.59617 L-5.73375,-11.85181 L-5.80060,-12.04507 L-5.23595,-16.37185 L-2.38605,-17.02232 L-0.00000,-13.36902 L0.02362,-13.16589 L0.01713,-9.54928 L4.12784,-8.61104 L5.69118,-11.87230 L5.80060,-12.04507 L9.53547,-14.30131 L11.82090,-12.47873 L10.45232,-8.33544 L10.30823,-8.19033 L7.47661,-5.94049z" />
      <path
         d="M 10,0 A 10,10 0 0 1 0,10 10,10 0 0 1 -10,0 10,10 0 0 1 0,-10 10,10 0 0 1 10,0 Z"
         id="path4308"
         sodipodi:type="arc"
         sodipodi:ry="10.0"
         sodipodi:rx="10.0"
         sodipodi:cy="0.0"
         sodipodi:cx="0.0"
         style="stroke:#000000;stroke-width:1.0;fill:none" />
    </g>
    <path
       id="path3243"
       style="color:#000000;fill:#000000;stroke:none;stroke-width:0.48487595;fill-opacity:1"
       inkscape:connector-curvature="0"
       d="m 11.940845,1029.1644 c -0.225656,0.016 -0.44501,0.05 -0.666723,0.076 l -0.01502,0 -0.53031,2.894 c -0.8644463,0.1969 -1.6776125,0.5309 -2.4092633,0.9849 l -2.3804432,-1.7122 c -0.6431015,0.4992 -1.2283087,1.0816 -1.7424566,1.7122 l 1.651618,2.4093 c -0.5014615,0.7663 -0.8785889,1.6414 -1.0909783,2.5607 -2.43e-5,0 -2.43e-5,0.014 0,0.016 l -2.8789942,0.4546 c -0.052622,0.4298 -0.075756,0.8742 -0.075756,1.3182 0,0.3634 0.01,0.7218 0.045439,1.0758 l 2.8789942,0.5153 c 0.2047467,0.9997 0.5937124,1.9334 1.1364105,2.7577 l -1.7122228,2.3487 c 0.4903702,0.6088 1.056492,1.163 1.6667336,1.6516 l 2.4243801,-1.6667 c 0.8473097,0.5405 1.793173,0.9194 2.818388,1.1061 l 0.454559,2.8639 c 0.323034,0.03 0.654318,0.03 0.984938,0.03 0.466751,0 0.912622,-0.017 1.36372,-0.076 l 0.54551,-2.9246 c 0.973382,-0.2422 1.887827,-0.6625 2.68192,-1.2274 l 2.333399,1.6972 c 0.605141,-0.5148 1.158506,-1.1065 1.636501,-1.7426 l -1.697107,-2.4547 c 0.459616,-0.7937 0.77803,-1.6697 0.939435,-2.6063 l 2.863878,-0.4545 c 0.0252,-0.2989 0.03009,-0.5887 0.03009,-0.894 0,-0.5306 -0.0617,-1.0508 -0.136404,-1.5606 l -2.909227,-0.5304 c -0.227986,-0.8418 -0.602062,-1.6274 -1.07579,-2.3335 l 1.712223,-2.3487 c -0.530747,-0.649 -1.13617,-1.2486 -1.803061,-1.7577 l -2.469869,1.6971 c -0.709867,-0.4199 -1.473757,-0.7419 -2.303168,-0.9243 l -0.454559,-2.879 c -0.413731,-0.048 -0.830896,-0.076 -1.257624,-0.076 -0.115355,0 -0.234045,0 -0.348547,0 -0.05579,0 -0.111028,0 -0.166645,0 -0.01502,0 -0.03055,0 -0.04558,0 z m 0.393981,7.3641 c 0.05539,0 0.110642,0 0.166701,0 1.793597,0 3.257747,1.4641 3.257747,3.2577 0,1.7936 -1.46415,3.2428 -3.257747,3.2428 -1.793598,0 -3.2426297,-1.4492 -3.2426297,-3.2428 0,-1.7374 1.3599037,-3.1707 3.0759287,-3.2577 z" />
  </g>
</svg>
